<?xml version="1.0" encoding="utf-8"?>
<!-- Generator: Adobe Illustrator 22.1.0, SVG Export Plug-In . SVG Version: 6.00 Build 0)  -->
<svg version="1.1" id="Layer_1" xmlns="http://www.w3.org/2000/svg" xmlns:xlink="http://www.w3.org/1999/xlink" x="0px" y="0px"
	 viewBox="0 0 263.1 72.8" style="enable-background:new 0 0 263.1 72.8;" xml:space="preserve">
<style type="text/css">
	.st0{fill:#FFF0DC;}
	.st1{fill:#FEB64E;}
	.st2{fill:#FFFFFF;}
</style>
<g>
	<path class="st0" d="M72.8,0C32.6,0,0,32.6,0,72.8h145.5C145.5,32.6,112.9,0,72.8,0z"/>
</g>
<path class="st1" d="M72.8,27.9C48,27.9,27.9,48,27.9,72.8h89.8C117.6,48,97.5,27.9,72.8,27.9z"/>
<g>
	<path class="st2" d="M169.2,59.8c-4.1,0-6.7-2-8.1-4.3l1.8-1.4c1.4,2.1,3.6,3.5,6.4,3.5s5.2-1.3,5.2-4.2s-4-3.9-5.9-4.6
		c-1.9-0.7-6.1-2.1-6.1-6.1s3.5-6,6.8-6s5.3,1.2,7,3.1l-1.5,1.5c-1.5-1.7-3.1-2.5-5.6-2.5c-2.5,0-4.3,1.2-4.3,3.6s2.4,3.3,5.1,4.3
		c2.8,1,7,2.4,7,6.6C177.1,57.4,173.4,59.8,169.2,59.8z"/>
	<path class="st2" d="M201.3,48.8h-18.1c0.2,5.3,3.2,8.8,8.3,8.8c5,0,7.8-2.9,7.8-2.9l1.2,1.8c0,0-2.8,3.4-9.3,3.4
		s-10.7-4.8-10.7-11.6c0-6.9,4.9-11.5,10.8-11.5c5.9,0,10.1,4.4,10.1,10.4C201.5,47.8,201.3,48.8,201.3,48.8z M198.9,46.6
		c0-2.9-2.2-7.8-7.7-7.8s-7.8,4.7-7.9,7.8H198.9z"/>
	<path class="st2" d="M225.8,48.8h-18.1c0.2,5.3,3.2,8.8,8.3,8.8c5,0,7.8-2.9,7.8-2.9l1.2,1.8c0,0-2.8,3.4-9.3,3.4S205,55,205,48.2
		c0-6.9,4.9-11.5,10.8-11.5c5.9,0,10.1,4.4,10.1,10.4C225.9,47.8,225.8,48.8,225.8,48.8z M223.4,46.6c0-2.9-2.2-7.8-7.7-7.8
		s-7.8,4.7-7.9,7.8H223.4z"/>
	<path class="st2" d="M249.2,59.4h-3.1L237,47.1l-3,2.8v9.5h-2.5V26.2h2.5v20.9l10.7-10h3.1l-9.1,8.5L249.2,59.4z"/>
	<path class="st2" d="M262.9,39.5c-0.5-0.2-1.2-0.4-2.4-0.4c-2.2,0-3.5,1.5-3.8,2c-0.4,0.5-1.6,2.4-1.6,6.2v12h-2.5V37.1h2.5v4.2
		c0.8-3,3.3-4.6,5.7-4.6c1.4,0,2.4,0.3,2.4,0.3L262.9,39.5z"/>
</g>
</svg>
